<?xml version="1.0" encoding="utf-8"?>
<!-- Generator: Adobe Illustrator 16.0.0, SVG Export Plug-In . SVG Version: 6.00 Build 0)  -->
<!DOCTYPE svg PUBLIC "-//W3C//DTD SVG 1.1//EN" "http://www.w3.org/Graphics/SVG/1.1/DTD/svg11.dtd">
<svg version="1.1" id="Layer_1" xmlns="http://www.w3.org/2000/svg" xmlns:xlink="http://www.w3.org/1999/xlink" x="0px" y="0px"
	 width="298.667px" height="104.667px" viewBox="0 0 298.667 104.667" enable-background="new 0 0 298.667 104.667"
	 xml:space="preserve">
<g>
	<defs>
		<rect id="SVGID_1_" x="-29.333" y="-54.333" width="360" height="216"/>
	</defs>
	<clipPath id="SVGID_2_">
		<use xlink:href="#SVGID_1_"  overflow="visible"/>
	</clipPath>
	<path clip-path="url(#SVGID_2_)" fill="#808285" d="M6.667,74.982h5.078c1.863-0.033,3.921,0.454,3.921,2.721
		c0,0.975-0.579,1.765-1.432,2.186c1.157,0.337,1.871,1.342,1.871,2.573c0,2.582-1.903,3.376-4.225,3.376H6.667V74.982z
		 M9.492,79.25h2.189c0.487,0,1.155-0.254,1.155-1.035c0-0.789-0.56-1.048-1.155-1.048H9.492V79.25z M9.492,83.572h2.266
		c0.896,0,1.52-0.324,1.52-1.221c0-0.955-0.669-1.271-1.52-1.271H9.492V83.572z"/>
	<path clip-path="url(#SVGID_2_)" fill="#808285" d="M18.765,80.378c0.048-1.038,0.536-1.701,1.232-2.113
		c0.7-0.396,1.615-0.548,2.51-0.548c1.871,0,3.678,0.407,3.678,2.644v3.454c0,0.666,0,1.395,0.304,2.022h-2.597
		c-0.098-0.246-0.122-0.484-0.159-0.748c-0.665,0.698-1.652,0.977-2.598,0.977c-1.503,0-2.689-0.766-2.689-2.392
		c0-2.567,2.797-2.369,4.591-2.73c0.443-0.099,0.685-0.249,0.685-0.734c0-0.59-0.716-0.823-1.247-0.823
		c-0.715,0-1.17,0.326-1.289,0.992H18.765z M22.113,84.466c1.229,0,1.638-0.701,1.58-2.327c-0.367,0.231-1.035,0.276-1.6,0.428
		c-0.574,0.136-1.061,0.376-1.061,1.005C21.032,84.209,21.53,84.466,22.113,84.466"/>
	<path clip-path="url(#SVGID_2_)" fill="#808285" d="M29.227,77.944h2.512v1.078h0.029c0.471-0.808,1.538-1.305,2.481-1.305
		c2.627,0,2.84,1.912,2.84,3.056v5.064h-2.584v-3.818c0-1.075,0.12-2.176-1.291-2.176c-0.975,0-1.398,0.824-1.398,1.688v4.306
		h-2.589V77.944z"/>
	<path clip-path="url(#SVGID_2_)" fill="#808285" d="M47.778,84.875c0,1.294-0.241,3.726-3.937,3.726
		c-1.839,0-3.575-0.412-3.874-2.524h2.582c0.06,0.354,0.198,0.565,0.441,0.686c0.23,0.121,0.545,0.171,0.943,0.171
		c1.233,0,1.353-0.867,1.353-1.844v-0.744h-0.031c-0.469,0.729-1.261,1.153-2.098,1.153c-2.387,0-3.462-1.701-3.462-3.922
		c0-2.096,1.232-3.859,3.462-3.859c0.943,0,1.662,0.407,2.114,1.217h0.032v-0.99h2.475V84.875z M43.785,79.692
		c-1.146,0-1.509,1.003-1.509,1.978c0,0.922,0.428,1.852,1.488,1.852c1.096,0,1.57-0.844,1.57-1.839
		C45.333,80.682,44.934,79.692,43.785,79.692"/>
	<rect x="50.869" y="74.982" clip-path="url(#SVGID_2_)" fill="#808285" width="2.585" height="10.854"/>
	<path clip-path="url(#SVGID_2_)" fill="#808285" d="M56.514,80.378c0.051-1.038,0.537-1.701,1.23-2.113
		c0.7-0.396,1.614-0.548,2.51-0.548c1.873,0,3.681,0.407,3.681,2.644v3.454c0,0.666,0,1.395,0.302,2.022h-2.596
		c-0.093-0.246-0.122-0.484-0.156-0.748c-0.668,0.698-1.652,0.977-2.602,0.977c-1.502,0-2.688-0.766-2.688-2.392
		c0-2.567,2.798-2.369,4.59-2.73c0.444-0.099,0.686-0.249,0.686-0.734c0-0.59-0.713-0.823-1.248-0.823
		c-0.714,0-1.171,0.326-1.288,0.992H56.514z M59.862,84.466c1.229,0,1.642-0.701,1.581-2.327c-0.368,0.231-1.038,0.276-1.601,0.428
		c-0.574,0.136-1.06,0.376-1.06,1.005C58.782,84.209,59.279,84.466,59.862,84.466"/>
	<path clip-path="url(#SVGID_2_)" fill="#808285" d="M74.794,85.837h-2.466v-0.914h-0.031c-0.5,0.743-1.262,1.143-2.169,1.143
		c-2.484,0-3.53-2.128-3.53-4.349c0-2.055,1.094-4,3.329-4c0.978,0,1.718,0.359,2.251,1.075h0.03v-3.811h2.586V85.837z
		 M69.182,81.803c0,1.082,0.395,2.286,1.58,2.286c1.266,0,1.535-1.204,1.535-2.211c0-1.136-0.409-2.187-1.535-2.187
		C69.577,79.692,69.182,80.805,69.182,81.803"/>
	<path clip-path="url(#SVGID_2_)" fill="#808285" d="M80.102,82.517c0.045,1.083,0.667,1.798,1.763,1.798
		c0.624,0,1.229-0.289,1.474-0.864h2.418c-0.47,1.824-2.159,2.615-3.922,2.615c-2.57,0-4.319-1.555-4.319-4.197
		c0-2.417,1.932-4.151,4.257-4.151c2.826,0,4.238,2.126,4.119,4.8H80.102z M83.311,81.08c-0.046-0.885-0.674-1.613-1.538-1.613
		c-0.912,0-1.523,0.653-1.671,1.613H83.311z"/>
	<path clip-path="url(#SVGID_2_)" fill="#808285" d="M90.531,83.24c0,0.387,0.17,0.681,0.429,0.877
		c0.244,0.184,0.592,0.271,0.957,0.271c0.504,0,1.219-0.212,1.219-0.837c0-0.608-0.807-0.729-1.264-0.829
		c-1.626-0.417-3.664-0.457-3.664-2.59c0-1.902,2.052-2.415,3.603-2.415c1.736,0,3.543,0.498,3.631,2.553h-2.385
		c0-0.334-0.12-0.548-0.333-0.684c-0.213-0.135-0.501-0.201-0.823-0.201c-0.423,0-1.109,0.051-1.109,0.594
		c0,0.749,1.732,0.884,2.917,1.141c1.599,0.321,2.007,1.472,2.007,2.128c0,2.113-2.007,2.818-3.789,2.818
		c-1.863,0-3.781-0.625-3.855-2.826H90.531z"/>
	<path clip-path="url(#SVGID_2_)" fill="#808285" d="M98.321,74.982h2.586v4.04h0.031c0.396-0.807,1.458-1.305,2.399-1.305
		c2.631,0,2.845,1.912,2.845,3.056v5.063h-2.587v-3.817c0-1.075,0.123-2.176-1.29-2.176c-0.971,0-1.398,0.824-1.398,1.688v4.305
		h-2.586V74.982z"/>
	<path clip-path="url(#SVGID_2_)" fill="#808285" d="M118.426,74.982h2.877l4.059,10.855h-2.951l-0.665-1.944h-3.792l-0.682,1.944
		h-2.902L118.426,74.982z M118.608,81.792h2.463l-1.196-3.804h-0.033L118.608,81.792z"/>
	<path clip-path="url(#SVGID_2_)" fill="#808285" d="M129.417,83.24c0,0.387,0.173,0.681,0.429,0.877
		c0.248,0.184,0.596,0.271,0.961,0.271c0.498,0,1.214-0.212,1.214-0.837c0-0.608-0.803-0.729-1.258-0.829
		c-1.631-0.417-3.668-0.457-3.668-2.59c0-1.902,2.051-2.415,3.601-2.415c1.737,0,3.544,0.498,3.635,2.553h-2.385
		c0-0.334-0.127-0.548-0.336-0.684c-0.213-0.135-0.5-0.201-0.824-0.201c-0.423,0-1.105,0.051-1.105,0.594
		c0,0.749,1.729,0.884,2.917,1.141c1.596,0.321,2.006,1.472,2.006,2.128c0,2.113-2.006,2.818-3.789,2.818
		c-1.865,0-3.781-0.625-3.857-2.826H129.417z"/>
	<path clip-path="url(#SVGID_2_)" fill="#808285" d="M139.215,83.24c0,0.387,0.167,0.681,0.426,0.877
		c0.243,0.184,0.594,0.271,0.957,0.271c0.504,0,1.22-0.212,1.22-0.837c0-0.608-0.808-0.729-1.26-0.829
		c-1.631-0.417-3.668-0.457-3.668-2.59c0-1.902,2.051-2.415,3.603-2.415c1.732,0,3.541,0.498,3.632,2.553h-2.387
		c0-0.334-0.122-0.548-0.333-0.684c-0.213-0.135-0.501-0.201-0.824-0.201c-0.421,0-1.109,0.051-1.109,0.594
		c0,0.749,1.735,0.884,2.92,1.141c1.597,0.321,2.01,1.472,2.01,2.128c0,2.113-2.01,2.818-3.787,2.818
		c-1.87,0-3.786-0.625-3.86-2.826H139.215z"/>
	<path clip-path="url(#SVGID_2_)" fill="#808285" d="M150.776,77.717c2.444,0,4.165,1.807,4.165,4.181
		c0,2.369-1.721,4.169-4.165,4.169c-2.445,0-4.154-1.8-4.154-4.169C146.622,79.524,148.331,77.717,150.776,77.717 M150.776,84.089
		c1.199,0,1.58-1.191,1.58-2.191c0-1.002-0.381-2.205-1.58-2.205c-1.207,0-1.568,1.203-1.568,2.205
		C149.208,82.898,149.569,84.089,150.776,84.089"/>
	<path clip-path="url(#SVGID_2_)" fill="#808285" d="M162.772,80.833c-0.02-0.668-0.607-1.141-1.264-1.141
		c-1.441,0-1.673,1.236-1.673,2.327c0,1.018,0.447,2.07,1.537,2.07c0.902,0,1.353-0.518,1.473-1.354h2.513
		c-0.234,2.113-1.867,3.331-3.97,3.331c-2.377,0-4.133-1.628-4.133-4.047c0-2.51,1.601-4.302,4.133-4.302
		c1.96,0,3.706,1.035,3.899,3.115H162.772z"/>
	<path clip-path="url(#SVGID_2_)" fill="#808285" d="M170.664,76.954h-2.585v-1.972h2.585V76.954z M168.079,77.944h2.585v7.894
		h-2.585V77.944z"/>
	<path clip-path="url(#SVGID_2_)" fill="#808285" d="M173.731,80.378c0.048-1.038,0.53-1.701,1.234-2.113
		c0.695-0.396,1.61-0.548,2.509-0.548c1.865,0,3.679,0.407,3.679,2.644v3.454c0,0.666,0,1.395,0.297,2.022h-2.596
		c-0.096-0.246-0.123-0.484-0.153-0.748c-0.671,0.698-1.655,0.977-2.595,0.977c-1.513,0-2.696-0.766-2.696-2.392
		c0-2.567,2.796-2.369,4.593-2.73c0.444-0.099,0.68-0.249,0.68-0.734c0-0.59-0.708-0.823-1.245-0.823
		c-0.714,0-1.168,0.326-1.284,0.992H173.731z M177.078,84.466c1.231,0,1.639-0.701,1.58-2.327c-0.364,0.231-1.034,0.276-1.601,0.428
		C176.48,82.703,176,82.943,176,83.572C176,84.209,176.502,84.466,177.078,84.466"/>
	<path clip-path="url(#SVGID_2_)" fill="#808285" d="M188.952,79.62h-1.601v3.583c0,0.625,0.364,0.758,0.93,0.758
		c0.211,0,0.44-0.022,0.671-0.022v1.899c-0.476,0.011-0.945,0.073-1.42,0.073c-2.198,0-2.761-0.636-2.761-2.781v-3.51h-1.31v-1.676
		h1.31v-2.382h2.58v2.382h1.601V79.62z"/>
	<path clip-path="url(#SVGID_2_)" fill="#808285" d="M194.125,76.954h-2.578v-1.972h2.578V76.954z M191.546,77.944h2.578v7.894
		h-2.578V77.944z"/>
	<path clip-path="url(#SVGID_2_)" fill="#808285" d="M201.069,77.717c2.446,0,4.165,1.807,4.165,4.181
		c0,2.369-1.719,4.169-4.165,4.169c-2.447,0-4.153-1.8-4.153-4.169C196.916,79.524,198.622,77.717,201.069,77.717 M201.069,84.089
		c1.195,0,1.58-1.191,1.58-2.191c0-1.002-0.385-2.205-1.58-2.205c-1.203,0-1.568,1.203-1.568,2.205
		C199.5,82.898,199.866,84.089,201.069,84.089"/>
	<path clip-path="url(#SVGID_2_)" fill="#808285" d="M207.922,77.944h2.508v1.078h0.035c0.47-0.808,1.532-1.305,2.475-1.305
		c2.63,0,2.847,1.912,2.847,3.056v5.064h-2.583v-3.818c0-1.075,0.12-2.176-1.297-2.176c-0.972,0-1.399,0.824-1.399,1.688v4.306
		h-2.585V77.944z"/>
	<path clip-path="url(#SVGID_2_)" fill="#808285" d="M228.755,77.717c2.441,0,4.163,1.807,4.163,4.181
		c0,2.369-1.722,4.169-4.163,4.169c-2.452,0-4.163-1.8-4.163-4.169C224.592,79.524,226.303,77.717,228.755,77.717 M228.755,84.089
		c1.198,0,1.575-1.191,1.575-2.191c0-1.002-0.377-2.205-1.575-2.205c-1.206,0-1.57,1.203-1.57,2.205
		C227.185,82.898,227.549,84.089,228.755,84.089"/>
	<path clip-path="url(#SVGID_2_)" fill="#808285" d="M236.169,79.62h-1.241v-1.676h1.241c0-2.264,0.789-2.962,2.997-2.962
		c0.407,0,0.834,0.027,1.246,0.045v1.821c-0.238-0.03-0.471-0.042-0.698-0.042c-0.596,0-0.96,0.072-0.96,0.786v0.352h1.553v1.676
		h-1.553v6.218h-2.585V79.62z"/>
	<path clip-path="url(#SVGID_2_)" fill="#808285" d="M9.497,97.37c0.062,1.276,0.853,1.688,2.05,1.688
		c0.854,0,1.734-0.306,1.734-1.109c0-0.955-1.55-1.141-3.113-1.578c-1.556-0.442-3.178-1.141-3.178-3.138
		c0-2.369,2.383-3.297,4.421-3.297c2.161,0,4.336,1.048,4.351,3.495h-2.827c0.042-0.985-0.885-1.307-1.75-1.307
		c-0.61,0-1.373,0.211-1.373,0.93c0,0.834,1.572,0.99,3.152,1.427c1.564,0.442,3.142,1.171,3.142,3.136
		c0,2.751-2.337,3.628-4.722,3.628c-2.495,0-4.703-1.091-4.717-3.874H9.497z"/>
	<path clip-path="url(#SVGID_2_)" fill="#808285" d="M20.689,92.898c2.444,0,4.167,1.813,4.167,4.181
		c0,2.374-1.723,4.165-4.167,4.165c-2.45,0-4.153-1.791-4.153-4.165C16.537,94.711,18.239,92.898,20.689,92.898 M20.689,99.269
		c1.2,0,1.578-1.187,1.578-2.19c0-0.998-0.378-2.201-1.578-2.201c-1.202,0-1.569,1.203-1.569,2.201
		C19.121,98.083,19.487,99.269,20.689,99.269"/>
	<path clip-path="url(#SVGID_2_)" fill="#808285" d="M26.365,94.802h-1.25v-1.674h1.25c0-2.266,0.787-2.964,2.993-2.964
		c0.41,0,0.838,0.027,1.248,0.045v1.826c-0.245-0.032-0.475-0.048-0.698-0.048c-0.596,0-0.962,0.075-0.962,0.789v0.352h1.552v1.674
		h-1.552v6.221h-2.581V94.802z"/>
	<path clip-path="url(#SVGID_2_)" fill="#808285" d="M36.714,94.802h-1.591v3.59c0,0.615,0.357,0.756,0.923,0.756
		c0.213,0,0.443-0.03,0.668-0.03v1.905c-0.474,0.007-0.946,0.07-1.413,0.07c-2.205,0-2.768-0.639-2.768-2.779v-3.512h-1.307v-1.674
		h1.307v-2.388h2.59v2.388h1.591V94.802z"/>
	<polygon clip-path="url(#SVGID_2_)" fill="#808285" points="47.581,101.023 44.963,101.023 43.717,95.777 43.688,95.777 
		42.457,101.023 39.838,101.023 37.375,93.127 39.995,93.127 41.319,98.237 41.348,98.237 42.471,93.127 44.935,93.127 
		46.089,98.224 46.123,98.224 47.412,93.127 50.045,93.127 	"/>
	<path clip-path="url(#SVGID_2_)" fill="#808285" d="M50.391,95.561c0.048-1.03,0.536-1.704,1.235-2.116
		c0.694-0.392,1.609-0.547,2.507-0.547c1.871,0,3.681,0.411,3.681,2.648v3.448c0,0.671,0,1.399,0.301,2.028h-2.6
		c-0.091-0.246-0.119-0.49-0.154-0.747c-0.668,0.696-1.654,0.968-2.597,0.968c-1.507,0-2.692-0.756-2.692-2.382
		c0-2.57,2.801-2.372,4.59-2.732c0.443-0.099,0.686-0.249,0.686-0.734c0-0.593-0.713-0.824-1.249-0.824
		c-0.711,0-1.171,0.321-1.287,0.99H50.391z M53.736,99.651c1.235,0,1.645-0.701,1.583-2.326c-0.362,0.226-1.035,0.276-1.596,0.427
		c-0.579,0.136-1.062,0.379-1.062,1C52.661,99.395,53.163,99.651,53.736,99.651"/>
	<path clip-path="url(#SVGID_2_)" fill="#808285" d="M59.203,93.128h2.508v1.382h0.03c0.379-1,1.259-1.535,2.369-1.535
		c0.198,0,0.412,0.018,0.61,0.063v2.357c-0.336-0.091-0.64-0.15-0.987-0.15c-1.277,0-1.947,0.884-1.947,1.868v3.91h-2.583V93.128z"
		/>
	<path clip-path="url(#SVGID_2_)" fill="#808285" d="M67.761,97.707c0.049,1.077,0.671,1.791,1.765,1.791
		c0.626,0,1.228-0.286,1.473-0.864h2.416c-0.467,1.821-2.157,2.61-3.918,2.61c-2.574,0-4.321-1.547-4.321-4.19
		c0-2.422,1.932-4.155,4.257-4.155c2.83,0,4.241,2.13,4.124,4.809H67.761z M70.971,96.259c-0.043-0.88-0.669-1.613-1.538-1.613
		c-0.909,0-1.52,0.658-1.672,1.613H70.971z"/>
	<path clip-path="url(#SVGID_2_)" fill="#808285" d="M84.388,100.103c-0.939,0.773-1.894,1.141-3.112,1.141
		c-1.931,0-3.619-1.289-3.619-3.312c0-1.553,1.154-2.553,2.464-3.165c-0.536-0.588-0.961-1.257-0.961-2.081
		c0-1.688,1.536-2.751,3.102-2.751c1.628,0,3.072,1.081,3.072,2.814c0,1.264-0.776,2.143-1.856,2.69l1.125,1.352
		c0.214-0.321,0.351-0.688,0.396-1.063h2.217c-0.088,0.973-0.528,1.93-1.197,2.643l2.285,2.651h-3.151L84.388,100.103z
		 M81.409,96.47c-0.526,0.246-1.259,0.776-1.259,1.432c0,0.759,0.733,1.246,1.429,1.246c0.487,0,1.035-0.396,1.447-0.776
		L81.409,96.47z M83.221,92.596c0-0.518-0.383-0.834-0.911-0.834c-0.472,0-0.851,0.352-0.851,0.804c0,0.593,0.422,0.944,0.76,1.369
		C82.748,93.611,83.221,93.25,83.221,92.596"/>
	<rect x="92.2" y="90.165" clip-path="url(#SVGID_2_)" fill="#808285" width="2.833" height="10.858"/>
	<path clip-path="url(#SVGID_2_)" fill="#808285" d="M96.485,93.128h2.508v1.08h0.034c0.473-0.81,1.535-1.311,2.479-1.311
		c2.629,0,2.842,1.919,2.842,3.06v5.065h-2.589v-3.819c0-1.075,0.122-2.176-1.289-2.176c-0.97,0-1.4,0.824-1.4,1.688v4.307h-2.585
		V93.128z"/>
	<path clip-path="url(#SVGID_2_)" fill="#808285" d="M106.221,94.802h-1.246v-1.674h1.246c0-2.266,0.793-2.964,2.989-2.964
		c0.415,0,0.84,0.027,1.252,0.045v1.826c-0.245-0.032-0.47-0.048-0.697-0.048c-0.597,0-0.961,0.075-0.961,0.789v0.352h1.55v1.674
		h-1.55v6.221h-2.583V94.802z"/>
	<path clip-path="url(#SVGID_2_)" fill="#808285" d="M114.65,92.898c2.447,0,4.167,1.813,4.167,4.181
		c0,2.374-1.72,4.165-4.167,4.165c-2.445,0-4.147-1.791-4.147-4.165C110.503,94.711,112.205,92.898,114.65,92.898 M114.65,99.269
		c1.202,0,1.58-1.187,1.58-2.19c0-0.998-0.378-2.201-1.58-2.201s-1.568,1.203-1.568,2.201
		C113.082,98.083,113.448,99.269,114.65,99.269"/>
	<path clip-path="url(#SVGID_2_)" fill="#808285" d="M119.856,93.128h2.507v1.382h0.029c0.383-1,1.264-1.535,2.373-1.535
		c0.196,0,0.412,0.018,0.603,0.063v2.357c-0.332-0.091-0.634-0.15-0.981-0.15c-1.279,0-1.944,0.884-1.944,1.868v3.91h-2.587V93.128z
		"/>
	<path clip-path="url(#SVGID_2_)" fill="#808285" d="M125.833,93.128h2.516v1.08h0.028c0.474-0.791,1.307-1.311,2.266-1.311
		c0.988,0,1.87,0.321,2.293,1.281c0.626-0.84,1.398-1.281,2.464-1.281c2.508,0,2.781,1.904,2.781,3.411v4.714h-2.582v-4.644
		c0-0.849-0.412-1.352-1.083-1.352c-1.106,0-1.213,0.852-1.213,2.128v3.867h-2.584v-4.492c0-0.925-0.271-1.503-0.975-1.503
		c-0.928,0-1.327,0.533-1.327,2.146v3.85h-2.584V93.128z"/>
	<path clip-path="url(#SVGID_2_)" fill="#808285" d="M139.399,95.561c0.047-1.03,0.531-1.704,1.234-2.116
		c0.699-0.392,1.609-0.547,2.506-0.547c1.871,0,3.681,0.411,3.681,2.648v3.448c0,0.671,0,1.399,0.302,2.028h-2.601
		c-0.092-0.246-0.122-0.49-0.15-0.747c-0.669,0.696-1.654,0.968-2.601,0.968c-1.508,0-2.686-0.756-2.686-2.382
		c0-2.57,2.796-2.372,4.587-2.732c0.441-0.099,0.682-0.249,0.682-0.734c0-0.593-0.714-0.824-1.245-0.824
		c-0.714,0-1.171,0.321-1.29,0.99H139.399z M142.741,99.651c1.234,0,1.646-0.701,1.584-2.326c-0.361,0.226-1.034,0.276-1.598,0.427
		c-0.576,0.136-1.062,0.379-1.062,1C141.665,99.395,142.165,99.651,142.741,99.651"/>
	<path clip-path="url(#SVGID_2_)" fill="#808285" d="M152.874,94.802h-1.597v3.59c0,0.615,0.363,0.756,0.929,0.756
		c0.213,0,0.438-0.03,0.668-0.03v1.905c-0.474,0.007-0.946,0.07-1.417,0.07c-2.201,0-2.766-0.639-2.766-2.779v-3.512h-1.308v-1.674
		h1.308v-2.388h2.586v2.388h1.597V94.802z"/>
	<path clip-path="url(#SVGID_2_)" fill="#808285" d="M156.3,92.138h-2.583v-1.974h2.583V92.138z M153.717,93.128h2.583v7.896h-2.583
		V93.128z"/>
	<path clip-path="url(#SVGID_2_)" fill="#808285" d="M161.499,92.898c2.447,0,4.166,1.813,4.166,4.181
		c0,2.374-1.719,4.165-4.166,4.165c-2.452,0-4.152-1.791-4.152-4.165C157.346,94.711,159.046,92.898,161.499,92.898 M161.499,99.269
		c1.196,0,1.58-1.187,1.58-2.19c0-0.998-0.384-2.201-1.58-2.201c-1.203,0-1.567,1.203-1.567,2.201
		C159.931,98.083,160.295,99.269,161.499,99.269"/>
	<path clip-path="url(#SVGID_2_)" fill="#808285" d="M166.609,93.128h2.51v1.08h0.027c0.47-0.81,1.543-1.311,2.487-1.311
		c2.618,0,2.844,1.919,2.844,3.06v5.065h-2.59v-3.819c0-1.075,0.123-2.176-1.294-2.176c-0.978,0-1.399,0.824-1.399,1.688v4.307
		h-2.585V93.128z"/>
	<path clip-path="url(#SVGID_2_)" fill="#808285" d="M181.465,97.37c0.067,1.276,0.859,1.688,2.061,1.688
		c0.852,0,1.729-0.306,1.729-1.109c0-0.955-1.546-1.141-3.118-1.578c-1.545-0.442-3.176-1.141-3.176-3.138
		c0-2.369,2.387-3.297,4.427-3.297c2.161,0,4.329,1.048,4.349,3.495h-2.831c0.048-0.985-0.882-1.307-1.748-1.307
		c-0.608,0-1.37,0.211-1.37,0.93c0,0.834,1.57,0.99,3.15,1.427c1.563,0.442,3.153,1.171,3.153,3.136
		c0,2.751-2.347,3.628-4.733,3.628c-2.495,0-4.698-1.091-4.711-3.874H181.465z"/>
	<path clip-path="url(#SVGID_2_)" fill="#808285" d="M191.098,97.707c0.047,1.077,0.67,1.791,1.766,1.791
		c0.623,0,1.227-0.286,1.478-0.864h2.417c-0.475,1.821-2.163,2.61-3.927,2.61c-2.573,0-4.319-1.547-4.319-4.19
		c0-2.422,1.939-4.155,4.261-4.155c2.827,0,4.244,2.13,4.116,4.809H191.098z M194.306,96.259c-0.043-0.88-0.666-1.613-1.533-1.613
		c-0.914,0-1.522,0.658-1.675,1.613H194.306z"/>
	<path clip-path="url(#SVGID_2_)" fill="#808285" d="M197.866,93.128h2.508v1.382h0.03c0.382-1,1.264-1.535,2.369-1.535
		c0.198,0,0.417,0.018,0.618,0.063v2.357c-0.339-0.091-0.646-0.15-0.995-0.15c-1.278,0-1.944,0.884-1.944,1.868v3.91h-2.586V93.128z
		"/>
	<polygon clip-path="url(#SVGID_2_)" fill="#808285" points="209.165,101.023 206.183,101.023 203.557,93.127 206.246,93.127 
		207.685,98.344 207.725,98.344 209.169,93.127 211.81,93.127 	"/>
	<path clip-path="url(#SVGID_2_)" fill="#808285" d="M214.903,92.138h-2.585v-1.974h2.585V92.138z M212.318,93.128h2.585v7.896
		h-2.585V93.128z"/>
	<path clip-path="url(#SVGID_2_)" fill="#808285" d="M221.465,96.018c-0.015-0.674-0.604-1.141-1.264-1.141
		c-1.447,0-1.674,1.226-1.674,2.327c0,1.02,0.448,2.064,1.538,2.064c0.897,0,1.352-0.518,1.475-1.352h2.51
		c-0.233,2.112-1.866,3.326-3.964,3.326c-2.382,0-4.138-1.622-4.138-4.039c0-2.514,1.6-4.307,4.138-4.307
		c1.959,0,3.705,1.037,3.894,3.12H221.465z"/>
	<path clip-path="url(#SVGID_2_)" fill="#808285" d="M227.141,97.707c0.048,1.077,0.671,1.791,1.766,1.791
		c0.623,0,1.222-0.286,1.476-0.864h2.414c-0.47,1.821-2.16,2.61-3.927,2.61c-2.567,0-4.316-1.547-4.316-4.19
		c0-2.422,1.937-4.155,4.259-4.155c2.826,0,4.243,2.13,4.12,4.809H227.141z M230.344,96.259c-0.037-0.88-0.66-1.613-1.532-1.613
		c-0.915,0-1.518,0.658-1.671,1.613H230.344z"/>
	<path clip-path="url(#SVGID_2_)" fill="#808285" d="M235.829,98.419c0,0.393,0.169,0.684,0.428,0.88
		c0.238,0.186,0.588,0.276,0.957,0.276c0.492,0,1.211-0.214,1.211-0.837c0-0.608-0.799-0.729-1.254-0.837
		c-1.633-0.412-3.666-0.457-3.666-2.585c0-1.899,2.051-2.419,3.599-2.419c1.743,0,3.538,0.501,3.64,2.558h-2.393
		c0-0.335-0.122-0.548-0.334-0.688c-0.215-0.136-0.502-0.196-0.818-0.196c-0.427,0-1.115,0.045-1.115,0.596
		c0,0.741,1.738,0.882,2.917,1.143c1.601,0.312,2.01,1.473,2.01,2.126c0,2.11-2.01,2.809-3.784,2.809
		c-1.871,0-3.785-0.62-3.858-2.824H235.829z"/>
	<path clip-path="url(#SVGID_2_)" fill="#808285" d="M6.667,7.199h23.621c10.812,0,21.839,2.571,21.839,15.348
		c0,4.849-2.447,9.619-7.327,11.169v0.433c6.066,2.141,9.914,6.538,9.914,13.146c0,11.387-10.657,15.286-20.429,15.286H6.667V7.199z
		 M27.326,28.496c2.962,0,6.295-0.293,6.295-4.105c0-4.121-3.781-3.825-6.743-3.825h-1.406v7.93H27.326z M25.472,49.356h2.296
		c3.332,0,8.151-0.072,8.151-4.629c0-4.624-5.19-4.556-8.449-4.556h-1.998V49.356z"/>
	<path clip-path="url(#SVGID_2_)" fill="#808285" d="M77.75,62.581H56.277l19.4-55.381h22.43l19.92,55.381H96.553l-1.855-6.909
		H79.381L77.75,62.581z M91.146,42.523l-2.376-9.769c-0.589-2.349-0.952-4.774-1.324-7.121h-0.742L83,42.523H91.146z"/>
	<path clip-path="url(#SVGID_2_)" fill="#808285" d="M125.584,42.744l1.036,0.809c3.625,2.79,7.994,5.065,12.661,5.065
		c1.997,0,5.177-0.808,5.177-3.305c0-2.492-2.667-2.721-4.511-3.086l-4.077-0.732c-7.921-1.393-14.585-6.022-14.585-14.691
		c0-13.148,12.065-20.486,24.205-20.486c6.368,0,12.218,1.538,17.702,4.847l-5.484,14.172c-3.475-2.349-7.401-4.187-11.774-4.187
		c-1.773,0-4.364,0.666-4.364,2.941c0,2.055,2.523,2.352,4.074,2.713l4.592,1.033c8.59,1.908,14.801,6.461,14.801,15.862
		c0,13.221-12.133,19.761-24.202,19.761c-7.04,0-15.183-1.91-21.474-5.067L125.584,42.744z"/>
	<rect x="171.495" y="7.2" clip-path="url(#SVGID_2_)" fill="#808285" width="20.282" height="55.381"/>
	<path clip-path="url(#SVGID_2_)" fill="#808285" d="M204.507,42.744l1.042,0.809c3.628,2.79,7.99,5.065,12.665,5.065
		c1.992,0,5.173-0.808,5.173-3.305c0-2.492-2.658-2.721-4.512-3.086l-4.067-0.732c-7.935-1.393-14.592-6.022-14.592-14.691
		c0-13.148,12.069-20.486,24.209-20.486c6.366,0,12.218,1.538,17.692,4.847l-5.475,14.172c-3.487-2.349-7.404-4.187-11.769-4.187
		c-1.776,0-4.371,0.666-4.371,2.941c0,2.055,2.515,2.352,4.075,2.713l4.588,1.033c8.587,1.908,14.8,6.461,14.8,15.862
		c0,13.221-12.138,19.761-24.201,19.761c-7.035,0-15.183-1.91-21.472-5.067L204.507,42.744z"/>
	<polygon clip-path="url(#SVGID_2_)" fill="#6EC8BF" points="256.053,49.324 256.053,34.956 268.263,42.143 280.589,49.324 
		268.318,56.506 256.053,63.689 	"/>
	<polygon clip-path="url(#SVGID_2_)" fill="#007F3E" points="256.053,20.456 256.053,6.089 268.263,13.276 280.589,20.456 
		268.318,27.643 256.053,34.824 	"/>
	<polygon clip-path="url(#SVGID_2_)" fill="#ED1C24" points="270.389,34.723 270.389,20.357 282.429,27.536 294.667,34.723 
		282.533,41.907 270.389,49.092 	"/>
	<path clip-path="url(#SVGID_2_)" fill="#808285" d="M287.77,6.09c0.989,0,1.923,0.178,2.8,0.536
		c0.879,0.358,1.657,0.878,2.342,1.562c0.664,0.671,1.177,1.447,1.536,2.328c0.361,0.881,0.541,1.807,0.541,2.778
		c0,0.984-0.177,1.906-0.531,2.765c-0.354,0.858-0.87,1.618-1.546,2.275c-0.708,0.69-1.506,1.222-2.395,1.595
		c-0.886,0.374-1.804,0.561-2.747,0.561c-0.951,0-1.858-0.182-2.719-0.546c-0.862-0.364-1.641-0.895-2.338-1.591
		c-0.688-0.684-1.214-1.46-1.578-2.328c-0.364-0.868-0.546-1.778-0.546-2.731c0-0.964,0.185-1.887,0.551-2.768
		c0.366-0.882,0.897-1.674,1.593-2.376c0.658-0.671,1.418-1.182,2.28-1.533C285.873,6.266,286.792,6.09,287.77,6.09 M293.513,13.29
		c0-0.767-0.144-1.497-0.431-2.192c-0.287-0.696-0.699-1.312-1.233-1.848c-0.556-0.555-1.176-0.975-1.863-1.258
		c-0.686-0.284-1.418-0.427-2.198-0.427c-0.784,0-1.518,0.139-2.2,0.417c-0.683,0.278-1.291,0.687-1.82,1.23
		c-0.548,0.555-0.97,1.183-1.262,1.886c-0.295,0.702-0.44,1.433-0.44,2.192c0,0.759,0.146,1.485,0.436,2.177
		c0.29,0.694,0.706,1.31,1.248,1.853c0.551,0.55,1.169,0.968,1.858,1.259c0.688,0.291,1.416,0.435,2.181,0.435
		c0.761,0,1.491-0.146,2.188-0.44c0.699-0.294,1.329-0.718,1.892-1.273c0.542-0.53,0.951-1.135,1.229-1.815
		C293.375,14.807,293.513,14.076,293.513,13.29 M289.058,11.934c-0.019-0.402-0.139-0.719-0.361-0.948
		c-0.223-0.23-0.52-0.345-0.889-0.345c-0.465,0-0.829,0.229-1.095,0.685c-0.264,0.456-0.395,1.1-0.395,1.93
		c0,0.837,0.129,1.465,0.39,1.883c0.262,0.418,0.654,0.628,1.177,0.628c0.381,0,0.673-0.117,0.876-0.35
		c0.206-0.234,0.316-0.574,0.336-1.021l2.376-0.009c-0.039,0.952-0.386,1.71-1.045,2.275c-0.656,0.565-1.523,0.848-2.601,0.848
		c-1.243,0-2.223-0.37-2.935-1.111c-0.711-0.741-1.065-1.763-1.065-3.066c0-1.278,0.354-2.31,1.061-3.1
		c0.709-0.789,1.632-1.183,2.767-1.183c1.123,0,2.012,0.254,2.666,0.762c0.654,0.508,1.006,1.215,1.057,2.122H289.058z"/>
</g>
</svg>
